<svg width="22" height="20" viewBox="0 0 22 20" fill="none" xmlns="http://www.w3.org/2000/svg">
<path d="M9.9986 4.93738C9.9986 2.70301 11.8775 0.844412 14.1119 0.874881C14.8944 0.883915 15.6576 1.11875 16.3098 1.55116C16.962 1.98357 17.4755 2.59515 17.7884 3.31238H21.3736L18.0931 6.59285C17.8814 9.88812 16.4227 12.9791 14.0136 15.2373C11.6044 17.4955 8.42566 18.7515 5.1236 18.7499C1.8736 18.7499 1.0611 17.5311 1.0611 17.5311C1.0611 17.5311 4.3111 16.3124 5.9361 13.8749C5.9361 13.8749 -0.563905 10.6249 1.0611 1.68738C1.0611 1.68738 5.1236 5.74988 9.9986 6.56238V4.93738Z" stroke="#F9F9F9" stroke-linecap="round" stroke-linejoin="round"/>
</svg>
