<svg width="26" height="26" viewBox="0 0 26 26" fill="none" xmlns="http://www.w3.org/2000/svg">
<path d="M16.25 13L11.375 9.75V16.25L16.25 13Z" fill="#F9F9F9" stroke="#F9F9F9" stroke-linecap="round" stroke-linejoin="round"/>
<path d="M2.4375 13.0005C2.4375 16.027 2.75234 17.7942 2.98594 18.7083C3.05035 18.9563 3.17214 19.1857 3.3415 19.378C3.51086 19.5703 3.72305 19.7201 3.96094 19.8153C7.36328 21.1153 13 21.0848 13 21.0848C13 21.0848 18.6367 21.1153 22.0391 19.8153C22.277 19.7201 22.4891 19.5703 22.6585 19.378C22.8279 19.1857 22.9497 18.9563 23.0141 18.7083C23.2477 17.7942 23.5625 16.027 23.5625 13.0005C23.5625 9.97389 23.2477 8.2067 23.0141 7.29264C22.9497 7.04463 22.8279 6.81522 22.6585 6.62293C22.4891 6.43063 22.277 6.28083 22.0391 6.18561C18.6367 4.88561 13 4.91608 13 4.91608C13 4.91608 7.36328 4.88561 3.96094 6.18561C3.72305 6.28083 3.51086 6.43063 3.3415 6.62293C3.17214 6.81522 3.05035 7.04463 2.98594 7.29264C2.75234 8.2067 2.4375 9.97389 2.4375 13.0005Z" stroke="#F9F9F9" stroke-linecap="round" stroke-linejoin="round"/>
</svg>
